<?xml version="1.0" encoding="UTF-8"?>
<svg id="Layer_1" data-name="Layer 1" xmlns="http://www.w3.org/2000/svg" xmlns:xlink="http://www.w3.org/1999/xlink" viewBox="0 0 720 200">
  <defs>
    <style>
      .cls-1 {
        fill: url(#linear-gradient);
      }

      .cls-1, .cls-2, .cls-3, .cls-4, .cls-5, .cls-6, .cls-7, .cls-8, .cls-9, .cls-10, .cls-11, .cls-12, .cls-13, .cls-14, .cls-15, .cls-16, .cls-17, .cls-18, .cls-19, .cls-20, .cls-21, .cls-22, .cls-23, .cls-24, .cls-25, .cls-26, .cls-27, .cls-28 {
        stroke-width: 0px;
      }

      .cls-2 {
        fill: url(#linear-gradient-28);
      }

      .cls-3 {
        fill: url(#linear-gradient-25);
      }

      .cls-4 {
        fill: url(#linear-gradient-11);
      }

      .cls-5 {
        fill: url(#linear-gradient-12);
      }

      .cls-6 {
        fill: url(#linear-gradient-13);
      }

      .cls-7 {
        fill: url(#linear-gradient-10);
      }

      .cls-8 {
        fill: url(#linear-gradient-17);
      }

      .cls-9 {
        fill: url(#linear-gradient-16);
      }

      .cls-10 {
        fill: url(#linear-gradient-19);
      }

      .cls-11 {
        fill: url(#linear-gradient-15);
      }

      .cls-12 {
        fill: url(#linear-gradient-23);
      }

      .cls-13 {
        fill: url(#linear-gradient-21);
      }

      .cls-14 {
        fill: url(#linear-gradient-18);
      }

      .cls-15 {
        fill: url(#linear-gradient-14);
      }

      .cls-16 {
        fill: url(#linear-gradient-22);
      }

      .cls-17 {
        fill: url(#linear-gradient-20);
      }

      .cls-18 {
        fill: url(#linear-gradient-27);
      }

      .cls-19 {
        fill: url(#linear-gradient-24);
      }

      .cls-20 {
        fill: url(#linear-gradient-26);
      }

      .cls-21 {
        fill: url(#linear-gradient-4);
      }

      .cls-22 {
        fill: url(#linear-gradient-2);
      }

      .cls-23 {
        fill: url(#linear-gradient-3);
      }

      .cls-24 {
        fill: url(#linear-gradient-8);
      }

      .cls-25 {
        fill: url(#linear-gradient-9);
      }

      .cls-26 {
        fill: url(#linear-gradient-7);
      }

      .cls-27 {
        fill: url(#linear-gradient-5);
      }

      .cls-28 {
        fill: url(#linear-gradient-6);
      }
    </style>
    <linearGradient id="linear-gradient" x1="-47.81" y1="82.2" x2="307.19" y2="91.3" gradientUnits="userSpaceOnUse">
      <stop offset="0" stop-color="#f5d899"/>
      <stop offset="1" stop-color="#d4a15e"/>
    </linearGradient>
    <linearGradient id="linear-gradient-2" x1="-47.89" y1="85.38" x2="307.11" y2="94.48" xlink:href="#linear-gradient"/>
    <linearGradient id="linear-gradient-3" x1="-47.84" y1="83.24" x2="307.17" y2="92.34" xlink:href="#linear-gradient"/>
    <linearGradient id="linear-gradient-4" x1="-47.87" y1="84.38" x2="307.14" y2="93.48" xlink:href="#linear-gradient"/>
    <linearGradient id="linear-gradient-5" x1="-47.78" y1="80.92" x2="307.23" y2="90.03" xlink:href="#linear-gradient"/>
    <linearGradient id="linear-gradient-6" x1="-47.94" y1="87.08" x2="307.07" y2="96.19" xlink:href="#linear-gradient"/>
    <linearGradient id="linear-gradient-7" x1="-48.95" y1="126.68" x2="306.05" y2="135.78" xlink:href="#linear-gradient"/>
    <linearGradient id="linear-gradient-8" x1="-49.04" y1="130.12" x2="305.96" y2="139.22" xlink:href="#linear-gradient"/>
    <linearGradient id="linear-gradient-9" x1="-48.99" y1="128.06" x2="306.02" y2="137.16" xlink:href="#linear-gradient"/>
    <linearGradient id="linear-gradient-10" x1="-49.02" y1="129.15" x2="305.99" y2="138.25" xlink:href="#linear-gradient"/>
    <linearGradient id="linear-gradient-11" x1="-48.92" y1="125.5" x2="306.08" y2="134.6" xlink:href="#linear-gradient"/>
    <linearGradient id="linear-gradient-12" x1="-49.01" y1="128.8" x2="306" y2="137.9" xlink:href="#linear-gradient"/>
    <linearGradient id="linear-gradient-13" x1="-49.07" y1="131.32" x2="305.93" y2="140.42" xlink:href="#linear-gradient"/>
    <linearGradient id="linear-gradient-14" x1="-49.03" y1="129.58" x2="305.98" y2="138.69" xlink:href="#linear-gradient"/>
    <linearGradient id="linear-gradient-15" x1="-48.97" y1="127.21" x2="306.04" y2="136.31" xlink:href="#linear-gradient"/>
    <linearGradient id="linear-gradient-16" x1="-48.94" y1="126.16" x2="306.07" y2="135.26" xlink:href="#linear-gradient"/>
    <linearGradient id="linear-gradient-17" x1="-49.05" y1="130.63" x2="305.95" y2="139.74" xlink:href="#linear-gradient"/>
    <linearGradient id="linear-gradient-18" x1="-48.91" y1="124.92" x2="306.1" y2="134.03" xlink:href="#linear-gradient"/>
    <linearGradient id="linear-gradient-19" x1="-48.93" y1="125.89" x2="306.07" y2="134.99" xlink:href="#linear-gradient"/>
    <linearGradient id="linear-gradient-20" x1="-48.98" y1="127.62" x2="306.03" y2="136.72" xlink:href="#linear-gradient"/>
    <linearGradient id="linear-gradient-21" x1="-49.06" y1="130.93" x2="305.94" y2="140.03" xlink:href="#linear-gradient"/>
    <linearGradient id="linear-gradient-22" x1="-47.97" y1="88.17" x2="307.04" y2="97.27" xlink:href="#linear-gradient"/>
    <linearGradient id="linear-gradient-23" x1="-48" y1="89.68" x2="307" y2="98.78" xlink:href="#linear-gradient"/>
    <linearGradient id="linear-gradient-24" x1="-47.34" y1="63.65" x2="307.67" y2="72.76" xlink:href="#linear-gradient"/>
    <linearGradient id="linear-gradient-25" x1="-48" y1="89.55" x2="307" y2="98.66" xlink:href="#linear-gradient"/>
    <linearGradient id="linear-gradient-26" x1="406.66" y1="152.28" x2="577.98" y2="86.5" xlink:href="#linear-gradient"/>
    <linearGradient id="linear-gradient-27" x1="412.56" y1="167.64" x2="583.88" y2="101.86" xlink:href="#linear-gradient"/>
    <linearGradient id="linear-gradient-28" x1="418.97" y1="184.33" x2="590.29" y2="118.55" xlink:href="#linear-gradient"/>
  </defs>
  <g>
    <path class="cls-1" d="M353.87,74.27c1.24,0,2.47,0,3.71,0,5.39,0,10.78,0,16.16,0,2.28,0,4.52.37,6.73.91,1.67.41,3.14,1.24,4.54,2.24,5.04,3.62,5.07,11.83-.51,15.57-1.23.82-2.58,1.39-4.1,1.92,1.54,2.56,3,5.02,4.51,7.46,1.01,1.64,2.08,3.25,3.14,4.85.81,1.23,1.56,2.52,3.03,3.12.13.06.23.24.31.39.05.09.03.22.06.51-3.27.16-6.52.07-9.73,0-.2-.52.01-.82.33-.96.78-.36.74-.8.38-1.49-.84-1.62-1.92-3.07-2.86-4.63-1.52-2.53-3.11-5.01-4.62-7.54-.58-.98-1.28-1.41-2.47-1.37-3.29.1-6.58.09-9.87.06-.87,0-1.22.22-1.22,1.12,0,3.97-.03,7.94-.08,11.91-.01.84.3,1.41,1.03,1.79.31.16.63.36.56.76-.08.46-.51.37-.82.37-2.5,0-4.99,0-7.49,0-.26,0-.61.09-.73-.26-.14-.41.14-.67.46-.78,1.13-.36,1.13-1.25,1.13-2.2,0-10.15,0-20.3.01-30.45,0-.99-.21-1.77-1.15-2.26-.23-.12-.37-.41-.55-.61.04-.13.07-.27.11-.4ZM369.62,79.58c-2.7,0-4.91.02-7.12-.01-.74-.01-1.17.13-1.16,1.01.04,2.89.04,5.78.04,8.67,0,.66.28.89.92.89,4.59-.01,9.18.19,13.77-.1,1.6-.1,3.11-.55,4.55-1.28,1.66-.84,2.36-2.23,2.37-4,.01-1.74-.81-3.03-2.32-3.88-.95-.54-2-.78-3.06-.97-2.81-.51-5.65-.26-8-.33Z"/>
    <path class="cls-22" d="M231.13,74.62c-.05.12-.06.28-.13.32-1.37.64-1.38,1.83-1.38,3.11.04,6.18.03,12.36.04,18.54,0,1.76.09,3.51.82,5.17.69,1.57,1.8,2.67,3.34,3.46,2.39,1.22,4.94,1.34,7.53,1.36,2.58.01,5.09-.43,7.46-1.46,1.42-.62,2.36-1.73,2.97-3.13.78-1.8,1.09-3.7,1.04-5.64-.17-6.07-.09-12.14-.11-18.2,0-1.12.17-2.32-1.2-2.89-.22-.09-.28-.38-.22-.6.1-.32.41-.34.7-.35,2.15-.1,4.31-.1,6.46.02.61.03,1.25-.13,1.81.22.12.28-.02.49-.21.57-1.2.5-1.39,1.46-1.38,2.63.04,5.9.03,11.8.02,17.69,0,2.21-.13,4.42-.57,6.6-.77,3.81-3.08,6.35-6.5,7.99-1.86.89-3.87,1.34-5.91,1.48-3.73.25-7.48.4-11.2-.26-.56-.1-1.12-.21-1.66-.35-5.6-1.46-8.53-4.85-9.12-10.67-.17-1.69-.23-3.4-.25-5.09-.05-5.78-.06-11.57-.1-17.35,0-1,.19-2.1-1.21-2.44-.18-.04-.32-.32-.28-.57.05-.27.25-.37.48-.38.68-.05,1.36-.12,2.04-.13,1.7,0,3.4,0,5.1.04.54.01,1.14-.11,1.6.33Z"/>
    <path class="cls-23" d="M305.46,74.51c3.13-.28,6.16-.25,9.2-.13-.02.28,0,.45-.04.47-1.43.56-1.5,1.73-1.49,3.03.04,6.29.03,12.59.04,18.88,0,1.25.06,2.49.35,3.72.51,2.11,1.73,3.68,3.68,4.63,3.57,1.73,7.34,1.71,11.15,1.18.5-.07,1-.21,1.49-.34,4.26-1.1,6.05-3.2,6.49-7.61.07-.73.08-1.47.08-2.21-.01-6.12-.04-12.25-.05-18.37,0-1.03.12-2.09-1.23-2.44-.19-.05-.33-.29-.29-.55.05-.3.3-.32.51-.34,2.83-.21,5.65-.2,8.44.02.18.43-.08.66-.31.74-1.26.42-1.27,1.43-1.26,2.49.03,5.95.04,11.91.06,17.86,0,1.99-.09,3.96-.46,5.92-.73,3.96-2.89,6.81-6.57,8.51-1.93.89-3.98,1.38-6.07,1.51-3.56.22-7.14.34-10.69-.22-1.24-.2-2.43-.54-3.61-.93-4.49-1.5-6.66-4.84-7.44-9.29-.26-1.45-.32-2.93-.32-4.4,0-6.12-.03-12.25,0-18.37,0-1.35,0-2.59-1.48-3.23-.06-.03-.07-.2-.17-.52Z"/>
    <path class="cls-21" d="M291.4,111.23c-.14-.62.09-.91.36-1.09.92-.64.65-1.32.13-2.02-2.89-3.85-5.78-7.7-8.62-11.48-.72-.04-.87.48-1.12.81-2.55,3.26-5.09,6.53-7.62,9.8-.31.4-.58.84-.84,1.28-.34.58-.58,1.14.3,1.5.34.14.53.47.45.83-.13.55-.62.39-.98.39-2.89.02-5.78.02-8.68.02-.31,0-.75.12-.85-.32-.08-.38.24-.62.55-.77,1.6-.77,2.59-2.19,3.64-3.51,3.49-4.39,6.93-8.82,10.39-13.25,1.19-1.53,1.17-1.53.06-3-2.83-3.75-5.66-7.51-8.49-11.27-1.13-1.5-2.27-2.98-4.01-3.84-.14-.07-.25-.23-.34-.37-.05-.08-.02-.21-.03-.48,3.52-.19,7.03-.22,10.56.03-.02.24.02.38-.04.44-1.24,1.28-1.27,1.3-.28,2.75,2.08,3.04,4.38,5.92,6.65,8.82.21.26.42.54.9.64.88-1.17,1.8-2.38,2.71-3.59,1.4-1.85,2.8-3.71,4.2-5.57.24-.32.48-.63.67-.98.35-.65.8-1.35-.38-1.69-.2-.06-.34-.29-.29-.55.06-.29.3-.29.52-.32.11-.02.23-.01.34-.02,3.17-.19,6.34,0,9.45-.01.25.42.04.63-.2.77-1.71.99-2.93,2.49-4.13,4-3.03,3.82-6.01,7.68-9.01,11.52-.83,1.07-.85,1.1-.07,2.13,3.66,4.9,7.33,9.8,11.02,14.69.86,1.14,1.88,2.12,3.24,2.68.29.12.43.38.38.68-.06.37-.4.33-.67.33-3.28,0-6.57,0-9.89,0Z"/>
    <path class="cls-27" d="M410.64,91.04c.9-1.22,1.64-2.22,2.36-3.23,2.33-3.21,4.65-6.43,6.97-9.65.3-.41.54-.86.77-1.32.25-.52.49-1.07-.3-1.4-.27-.12-.45-.39-.39-.68.1-.42.49-.42.82-.42,3.22,0,6.44,0,9.58,0,.26.49.06.71-.18.85-2.29,1.3-3.78,3.41-5.33,5.42-3.55,4.63-7.01,9.34-10.53,13.99-.5.66-.79,1.31-.78,2.17.04,3.86.03,7.71.03,11.57,0,.7-.04,1.37.83,1.65.41.13.63.48.55.94-.09.54-.53.52-.92.52-2.49,0-4.99-.01-7.48-.03-.27,0-.59,0-.72-.32-.16-.37,0-.76.3-.88,1.42-.53,1.24-1.69,1.24-2.83,0-3.46.02-6.92.05-10.38,0-.64-.08-1.21-.48-1.75-3.82-5.21-7.61-10.44-11.42-15.66-1.24-1.7-2.59-3.3-4.49-4.34-.2-.11-.36-.28-.27-.78,3.45-.24,6.96-.31,10.44-.07.05.25.13.4.08.45-1.14,1.29-1.22,1.34-.25,2.82,1.37,2.08,2.86,4.09,4.3,6.12,1.67,2.35,3.55,4.53,5.22,7.23Z"/>
    <path class="cls-28" d="M190.58,74.59c.06.32-.12.55-.3.6-1.21.34-1.24,1.24-1.22,2.26.18,9.08.09,18.15.02,27.23,0,.34,0,.68,0,1.02-.02.48.19.74.69.75.34,0,.68.03,1.02.03,6.98.02,13.96.03,20.94.05,1.14,0,2.3.12,2.94-1.16.09-.19.34-.3.58-.2.27.1.26.36.25.57-.03,2.31.16,4.63-.07,6.91-.2.03-.37.1-.4.06-.87-1.29-2.16-1.4-3.56-1.4-9.53.03-19.06.01-28.6.02-.17,0-.34.02-.51.02-.33,0-.77.11-.92-.25-.18-.41.09-.8.47-.97.92-.41,1.13-1.11,1.12-2.05-.06-9.98-.08-19.97-.13-29.95,0-1.16.24-2.45-1.33-2.92-.21-.07-.31-.36-.23-.58.08-.22.32-.3.56-.31.57-.04,1.13-.11,1.7-.11,1.87,0,3.74.03,5.62.08.48.01,1.01-.08,1.38.31Z"/>
    <path class="cls-26" d="M272.04,127.44c.44.02.89-.25,1.3-.09.34.14.5.53.62.88,1.31,3.79,2.63,7.58,3.9,11.38.04.13.09.26.13.39.04.13.64-.52.67-.59.15-.34.23-.75.34-1.1.28-.88.57-1.77.85-2.65.57-1.75,1.16-3.49,1.73-5.23.23-.7.45-1.4.7-2.1.17-.46.22-1.12.83-1.17.76-.06,1.06.6,1.26,1.19.64,1.91,1.27,3.83,1.9,5.74.67,2.05,1.25,4.11,2.36,5.98,1.42-3.92,2.77-7.87,4.05-11.84.13-.39.3-.83.68-.99.28-.11.59-.03.88.07.12.04.26.1.32.22.07.14.02.3-.03.45,0,.18-.16.46-.22.63-.09.25-.17.5-.26.75-.17.48-.34.96-.5,1.44-.34.96-.67,1.92-1.01,2.88-.67,1.92-1.35,3.83-2.02,5.75-.25.71-.5,1.42-.75,2.13-.19.54-.36,1.22-.85,1.58-.47.34-.97.04-1.22-.41-.28-.49-.47-1.03-.66-1.56-1.08-3.1-2.15-6.2-3.23-9.31-.09-.27-.21-.52-.31-.77-.59.03-.59.51-.71.85-1.18,3.31-2.33,6.62-3.5,9.93-.2.58-.48,1.81-1.4,1.44-.36-.14-.53-.55-.66-.91-1.5-4.15-3-8.3-4.49-12.44-.29-.81-.59-1.63-.69-2.49Z"/>
    <path class="cls-24" d="M149.7,135.75c1.15-1.74,2.31-3.53,3.5-5.31.56-.85,1.16-1.68,1.75-2.51.06-.09.14-.18.21-.27.41-.55.98-.55,1.54-.37.56.18.45.72.45,1.16.02,3.91.04,7.83.06,11.74,0,.82.03,1.7-.14,2.51-.02.11-.06.23-.14.3-.08.08-.2.09-.32.11-.28.03-.57.03-.85,0-.35-.03-.37-.04-.39-.4-.04-.56-.05-1.12-.05-1.68-.02-1.13,0-2.27.02-3.4s.04-2.33.02-3.5c0-.6-.02-1.2-.04-1.8-.01-.32-.03-.64-.05-.95,0-.16-.15-.76-.06-.89-2.02,2.97-3.81,5.59-5.67,8.33-1.94-2.58-3.46-5.36-5.46-7.79-.59.12-.29.55-.29.81-.02,3.4,0,6.81-.02,10.21,0,.47.15,1.07-.61,1.19-.77.12-1.13-.15-1.14-1-.02-1.25,0-2.5,0-3.74,0-3.29,0-6.58.03-9.87,0-.48-.21-1.11.4-1.36.66-.27,1.21.07,1.65.57.26.3.48.63.7.96,1.44,2.17,2.88,4.35,4.31,6.53.13.19.23.39.61.44Z"/>
    <path class="cls-25" d="M225.25,134.2c-.9-1-1.54-1.97-1.56-3.24-.04-2.06,1.14-3.49,3.26-3.92,1.83-.37,3.76.64,4.44,2.34.6,1.47-.07,3.12-1.25,4.09-.32.27-.69.48-1.05.69-.1.06-1.17.76-1.15.79,1.02,1,1.99,1.94,2.96,2.89.47.46.86.47,1.2-.14.36-.64.73-1.27,1.09-1.92.18-.32.22-.89.78-.59.48.25.78.69.45,1.27-.36.64-.73,1.28-1.11,1.91-.74,1.23-.74,1.23.27,2.3.35.37.73.71,1.09,1.07.4.4.35.79-.03,1.18-.34.35-.69.32-1.06.04-.04-.03-.09-.07-.13-.11-.72-.54-1.1-1.74-1.97-1.71-.71.03-1.36.91-2.08,1.34-1.26.75-2.65.96-4.1.78-1.87-.23-3.38-1.51-3.77-3.19-.47-2.01.22-3.72,1.96-4.82.52-.33,1.07-.64,1.75-1.04ZM226.71,141.92c1.1-.03,2.18-.6,3.12-1.48.45-.42.52-.82.06-1.3-.63-.65-1.26-1.3-1.88-1.95-.31-.33-.62-.66-.94-.98-.25-.25-.5-.54-.85-.65-.4-.13-.8.06-1.16.24-.32.16-.62.37-.87.62-.5.49-.85,1.12-.97,1.81-.07.37-.07.75-.01,1.12.24,1.54,1.57,2.58,3.5,2.57ZM230.11,130.65c.09-.71-.24-1.32-.91-1.76-1.17-.77-3-.43-3.61.66-.6,1.07.05,3.42,1.1,3.93.14.07.32.11.48.1,1.34-.03,2.84-1.48,2.93-2.93Z"/>
    <path class="cls-7" d="M191.48,139.53c.06,0,.11-.06.16-.19.24-.68.14-1.35.14-2.05,0-.51,0-1.02,0-1.53,0-1.02,0-2.03,0-3.05,0-1.44,0-2.89,0-4.33,0-.44-.11-.93.47-1.14.61-.21,1.13.1,1.19.75.04.51,0,1.02.01,1.53,0,4.02.03,8.05.02,12.07,0,.53.25,1.24-.41,1.51-.79.33-1.2-.29-1.64-.85-2.98-3.78-5.97-7.55-8.97-11.32-.1-.12-.24-.21-.43-.38-.31.44-.18.9-.18,1.31-.02,3.12-.02,6.23-.03,9.35,0,.45-.01.91-.05,1.36-.04.5-.37.66-.82.63-.43-.02-.78-.16-.82-.67-.02-.28-.01-.57-.01-.85.02-4.36.05-8.73.07-13.09,0-.28,0-.57.04-.85.07-.53.43-.61.87-.53.81.15,1.19.81,1.64,1.38,2.59,3.3,5.17,6.59,7.77,9.88.14.17.29.34.44.5.11.12.2.27.32.4.08.09.15.15.22.14Z"/>
    <path class="cls-4" d="M335.71,136.84c1.62,2.05,3.13,4,4.5,6.27-1.28.2-2.09.12-2.75-1.08-.81-1.48-1.96-2.77-2.92-4.17-.43-.63-.92-.92-1.69-.86-.96.07-1.93.07-2.89.02-.7-.04-.88.27-.89.89,0,1.19-.04,2.38-.07,3.57-.01.4-.04.79-.07,1.19-.04.42-.31.56-.7.56-.38,0-.67-.1-.7-.54-.02-.23-.03-.45-.03-.68-.02-2.68-.03-5.37-.05-8.05,0-1.71-.02-3.41-.02-5.12,0-.32,0-.65.04-.97.02-.15.06-.32.18-.42.08-.07.19-.09.29-.11.51-.09,1.01-.06,1.53-.06.57,0,1.14,0,1.7,0,1.14,0,2.27,0,3.41,0,1.1,0,2.13.23,3.08.82,3.01,1.87,2.96,6.09-.11,7.85-.53.3-1.1.54-1.84.9ZM329.05,131.63c.04.9.04,1.8.03,2.71,0,.24,0,.48.08.7.13.34.46.47.81.47,1.81-.02,3.62.04,5.41-.22,1.72-.25,2.79-1.51,2.81-3.09.02-1.24-.75-2.34-1.86-2.86-.61-.29-1.29-.39-1.96-.44-1.09-.07-2.18-.07-3.26-.17-.5-.05-1.05-.18-1.51.07-.68.36-.64,1.29-.6,1.95.02.29.04.59.05.89Z"/>
    <path class="cls-5" d="M198.03,135.24c.04-.73.02-1.47.02-2.2s0-1.53,0-2.29c0-.71,0-1.42,0-2.13,0-1.29,0-1.31,1.32-1.33,1.59-.03,3.18-.08,4.76,0,3.19.18,6.83,2.17,7.66,6.51.82,4.31-2.13,8.45-6.6,9.12-1.97.3-3.96.29-5.94.26-1.15-.02-1.23-.14-1.23-1.3,0-1.53,0-3.06,0-4.59,0-.63,0-1.25,0-1.88,0-.05,0-.11,0-.16ZM202.08,141.52c.91,0,1.42.02,1.93,0,3.46-.14,6.07-2.69,6.16-6,.09-3.49-2.28-6.21-5.79-6.55-1.12-.11-2.27-.03-3.39-.13-.91-.08-1.17.28-1.16,1.15.04,2.94.02,5.89.02,8.83q0,2.69,2.23,2.7Z"/>
    <path class="cls-6" d="M99.7,135.12c0-2.27.03-4.53-.02-6.8-.02-.8.23-1.13,1.05-1.11,1.81.04,3.64-.12,5.43.07,3.84.41,7.21,3.02,7.56,7.19.34,3.97-2.33,7.54-6.36,8.44-2.23.5-4.51.3-6.78.32-.8,0-.87-.51-.87-1.14.01-2.32,0-4.65,0-6.97h-.03ZM104.31,128.92c-.71,0-1.28.03-1.84,0-.67-.04-.88.26-.87.9.03,3.62.04,7.24.04,10.86,0,.57.22.81.8.8,1.24-.03,2.5.08,3.73-.03,3.33-.28,5.67-2.76,5.77-6.02.1-3.23-2.13-5.88-5.41-6.37-.78-.12-1.58-.1-2.22-.14Z"/>
    <path class="cls-15" d="M176.18,135.22c.03,4.68-3.65,8.19-8.38,8.14-4.5-.06-7.91-3.65-7.75-8.33.16-4.56,3.52-8.11,8.23-8.08,4.46.03,7.98,3.76,7.9,8.27ZM168.17,141.83c3.55.03,6.28-2.84,6.3-6.61.02-3.6-2.84-6.57-6.37-6.61-3.57-.05-6.24,2.76-6.26,6.6-.02,3.64,2.8,6.6,6.33,6.63Z"/>
    <path class="cls-11" d="M257.8,135.22c-.01-.55-.02-1.11-.02-1.67,0-1.71-.02-3.42-.02-5.14-.02-.93.33-1.16,1.18-1.15,2.65.03,5.31.02,7.97.02h1.3c.28,0,.59,0,.81.19.31.27.25.83-.09,1.07-.26.18-.59.18-.9.18-2.46,0-4.91-.02-7.37-.02-.34,0-.72.02-.96.27-.22.24-.22.6-.21.92.04,1.21-.01,2.41-.01,3.62,0,.15.03.3.08.44.03.07.24.29.24.32.21.16.5.16.76.17,2.34.01,4.67.02,7.01.03.15,0,.3,0,.43.08.15.09.23.28.25.45.03.23-.02.49-.2.64-.18.15-.43.16-.66.16-2.23,0-4.46.02-6.69.02-.28,0-.71-.04-.93.18-.25.25-.2.83-.21,1.16-.02,1.17-.04,2.34-.06,3.51-.01.71.39.91,1.05.9,2.44-.02,4.88,0,7.31.05.54.01,1.39-.33,1.42.67.03,1.06-.84.7-1.38.71-2.78.07-5.56.11-8.33.14-1.73.02-1.73.01-1.74-1.63,0-1.34,0-2.67,0-4.01,0-.76-.02-1.52-.03-2.28Z"/>
    <path class="cls-9" d="M298.25,135.16c0-2.27.03-4.54-.02-6.8-.02-.83.28-1.08,1.08-1.07,3.06.03,6.12.01,9.18.01.52,0,1.05-.04,1.01.75-.05.8-.63.65-1.11.65-2.38.01-4.76,0-7.14.02-1.28.02-1.29.05-1.32,1.34-.02,1.13.01,2.27-.03,3.4-.03.73.27,1.01.99,1,2.1-.02,4.2-.03,6.29,0,.54,0,1.42-.42,1.47.59.05,1-.83.71-1.39.71-2.04.03-4.08.05-6.12,0-.84-.02-1.25.21-1.21,1.13.05,1.19.04,2.38-.02,3.57-.04.82.26,1.08,1.07,1.08,2.38-.03,4.76.02,7.14.03.34,0,.68-.01,1.02,0,.43.03.54.35.55.71,0,.37-.12.67-.54.72-.17.02-.34,0-.51,0-2.95.02-5.89.05-8.84.06-1.5,0-1.49-.02-1.49-1.51,0-2.15,0-4.31,0-6.46-.02,0-.03,0-.05,0Z"/>
    <path class="cls-8" d="M137.6,143.19c-.34-.06-.68-.2-.83-.34-.34-.33-.45-.83-.61-1.26-.18-.48-.38-.96-.55-1.45-.25-.72-.65-1.1-1.48-1.1-2.32.01-4.64-.03-6.96-.08-.69-.02-1.01.32-1.25.91-.37.88-.79,1.74-1.2,2.61-.17.37-.35.73-.84.73-.39,0-.85.07-1.14-.21-.38-.37.04-.72.2-1.05.41-.82.92-1.59,1.35-2.4.64-1.21,1.06-2.55,1.63-3.8.57-1.26,1.21-2.48,1.81-3.72s1.03-2.48,1.62-3.69c.31-.63.51-1.25,1.39-1.23.87.02,1.12.66,1.4,1.28,2.07,4.62,4.17,9.24,6.25,13.86.06.14.13.28.14.43.04.51-.45.6-.93.53ZM134.18,137.29c-1.1-2.82-2.24-5.33-3.55-8.04-1.24,2.83-2.36,5.38-3.52,8.04h7.07Z"/>
    <path class="cls-14" d="M341.95,127.39c.12-.19.59-.18.78-.17.32.02.63.13.89.29.42.26.75.66,1.02,1.07.4.6.78,1.22,1.18,1.83.74,1.11,1.49,2.21,2.24,3.31.13.19.25.38.38.56.19.28.33.6.85.69.04,0,.43-.63.48-.7.17-.24.35-.48.53-.72.36-.48.72-.96,1.07-1.45.51-.73.88-1.52,1.33-2.29.27-.45.56-.9.87-1.32.27-.38.55-.84.96-1.07.58-.32,1.29-.22,1.9-.03-.04-.01-.5.73-.55.8-.19.28-.38.56-.57.84-.36.53-.72,1.06-1.08,1.59-.74,1.1-1.49,2.2-2.28,3.27-.02.03-.05.06-.07.1-.46.63-.93,1.26-1.32,1.94-.33.57-.55,1.19-.6,1.85-.05.6,0,1.2,0,1.79,0,.62-.02,1.24-.03,1.86,0,.34-.03.68-.06,1.02-.05.56-.36.79-.91.75-.52-.04-.64-.35-.64-.8,0-.68-.03-1.36-.04-2.03s.04-1.38.02-2.08c-.03-1.15-.42-2.17-1.15-3.06-1.91-2.31-3.31-4.98-5.08-7.39-.07-.09-.13-.26-.13-.37,0-.03,0-.06.02-.08Z"/>
    <path class="cls-10" d="M313.36,134.69c0-.54,0-1.09,0-1.63.01-1.61.07-3.22-.07-4.82-.02-.19-.04-.4.03-.58.11-.31.44-.35.73-.37.52-.04,1.07-.08,1.12.66.03.39,0,.79,0,1.19,0,3.73,0,7.47.03,11.2,0,.62-.03,1.2.75,1.2,2.43.02,4.85.05,7.28.07.18,0,.38,0,.54.09.26.13.29.41.29.67,0,.32-.13.54-.47.58-.22.03-.45.04-.68.05-2.66.05-5.32.1-7.98.13-.66,0-1.51.14-1.58-.73-.03-.4-.03-.8-.03-1.2,0-2.17,0-4.34,0-6.51Z"/>
    <path class="cls-17" d="M251.72,133.36c0-1.59,0-3.18,0-4.76,0-.58-.22-1.33.81-1.3.83.03.97.19.98,1.4.02,1.93.02,3.86.02,5.78,0,1.42-.02,2.83-.1,4.25-.19,3.63-4.18,5.83-7.71,3.8-.59-.34-1.12-.77-1.58-1.28-.34-.38-.53-.72,0-1.13.47-.36.81-.52,1.25.06.52.69,1.18,1.2,2.04,1.45,2.18.65,3.97-.4,4.16-2.66.15-1.86.03-3.74.03-5.61.03,0,.05,0,.08,0Z"/>
    <path class="cls-13" d="M119.43,135.16c0,2.09,0,4.19,0,6.28,0,.39-.03.79-.08,1.18-.06.5-.4.63-.85.62-.48,0-.74-.23-.79-.7-.03-.28-.03-.57-.03-.85,0-4.36,0-8.72,0-13.08,0-.11,0-.23,0-.34-.02-.63.09-1.12.9-1.09.8.04.87.56.87,1.17,0,1.64,0,3.28,0,4.93,0,.62,0,1.25,0,1.87h-.02Z"/>
    <path class="cls-16" d="M131.65,99.2c2.76-5.69,5.52-11.39,8.28-17.09.72-1.48,1.41-2.97,2.14-4.44.43-.87.78-1.68-.42-2.26-.31-.15-.47-.52-.32-.88.13-.31.46-.29.74-.29,3.63-.07,7.26-.14,10.88.06.21.01.42.13.61.2,0,.16.04.35,0,.37-1.4.73-1.36,1.98-1.36,3.33.02,8.12,0,16.25-.02,24.37,0,1.06,0,2.11,0,3.17,0,.97-.16,2.04.02,2.98.11.58.41,1.15.91,1.46.16.1.36.18.45.35.12.22,0,.52-.21.66-.51.34-1.72.13-2.31.13-.93.01-1.85.02-2.78.02-1.09,0-2.18-.02-3.26-.04-.26,0-.57-.11-.63-.37-.06-.22.09-.44.28-.57s.41-.19.6-.31c.65-.38.88-1.2.88-1.95.05-7.99-.06-16-.08-24,0-.77,0-1.55,0-2.32,0-.44,0-.87-.14-1.35-5.06,9.64-9.51,19.56-14.65,29.5-5.06-9.64-9.98-19-14.98-28.53-.34.78-.26,1.4-.27,1.99-.21,8.11-.06,16.22-.06,24.32,0,1-.12,2.09,1.19,2.5.3.09.35.41.27.72-.07.27-.3.33-.52.33-2.16,0-4.32.03-6.48,0-.23,0-.47-.05-.63-.21s-.21-.45-.06-.61c.08-.09.21-.12.32-.17.21-.09.39-.25.53-.43.52-.66.61-1.56.57-2.4-.2-3.91-.08-7.86-.09-11.78-.01-4.07-.03-8.13-.04-12.2,0-1.91-.02-3.82-.02-5.73,0-.93.2-1.97-1.07-2.38-.26-.08-.33-.46-.25-.75.07-.23.3-.34.53-.35,3.66-.13,7.32-.2,10.91.1.16.53-.04.74-.25.92-1.03.87-1.08.89-.53,2.01,1.54,3.15,3.11,6.3,4.7,9.43,1.95,3.84,3.91,7.67,5.89,11.49.17.33.23.78.75.97Z"/>
    <path class="cls-12" d="M82.98,101.45c-2.64,0-5.27-.01-7.91-.02-.41,0-.84,0-1.21.19-.91.48-1.24,1.99-1.62,2.85-.52,1.19-1.07,2.36-1.6,3.55-.35.79-.61,1.51.22,2.29.59.56.34,1.02-.51,1.04-2.44.05-4.88.04-7.32.05-.27,0-.58,0-.69-.35-.1-.31.03-.62.25-.75,2.47-1.46,3.08-4.14,4.15-6.45,3.67-7.91,7.22-15.88,10.81-23.82.4-.88.73-1.78,1.11-2.67.32-.77.52-1.44-.36-2.07-.49-.35-.29-.8.35-.9,1.47-.2,2.94-.22,4.42-.19,1.47.02,2.95.04,4.42.13.89.05,1.13.49.54.99-.79.67-.69,1.26-.31,2.05,1.42,2.99,2.8,6,4.2,9.01,1.6,3.43,3.2,6.86,4.81,10.29,1.17,2.5,2.3,5,3.43,7.52,1.02,2.26,2.3,4.49,4.27,6.05.24.19.51.45.42.73-.09.3-.48.35-.79.35-2.71,0-5.42,0-8.13,0-.24,0-.5-.01-.66-.2-.16-.19-.11-.49.02-.7s.31-.39.43-.61c.3-.57.07-1.26-.18-1.86-.83-2-1.76-3.97-2.8-5.87-.09-.17-.19-.35-.36-.46-.2-.13-.46-.14-.7-.14-2.91,0-5.82-.02-8.73-.03ZM82.96,80.98c-1.4,2.1-6.75,14.02-6.96,15.49h14.21c-2.4-5.25-4.63-10.42-7.25-15.49Z"/>
    <path class="cls-19" d="M90.5,70.95c-.16.19-.54.12-.89-.05-.3-.14-.55-.36-.8-.57-1.45-1.23-2.93-2.42-4.31-3.71-.34-.32-.69-.75-1.21-.7-.53.04-.91.57-1.25.92-.44.44-.89.87-1.35,1.29-.94.85-1.92,1.66-2.95,2.4-.21.15-.43.31-.68.39-.46.15-.99,0-.83-.57.03-.12.1-.22.17-.31.96-1.38,1.9-2.76,2.84-4.15.32-.47.66-.93.97-1.4.3-.46.46-.96.99-1.21.32-.15.68-.2,1.03-.24,1.37-.14,3.37-.46,4.29.84.48.68.72,1.51,1.21,2.18.77,1.05,1.47,2.14,2.18,3.24.24.38.54.74.65,1.19.05.23.03.38-.05.47Z"/>
    <path class="cls-3" d="M61.3,80.56c-.64.12-1.03-.21-1.09-.39-.32-1.12-1.21-1.03-2.03-1.03-3.46-.02-6.92-.02-10.38,0-1.32,0-1.36.05-1.32,1.3.27,9.24.13,18.49.1,27.73,0,.83-.01,1.6,1,1.89.45.13.57.52.46.96-.1.43-.46.46-.8.46-2.55-.01-5.1-.03-7.66-.06-.28,0-.59-.03-.72-.33-.16-.36-.04-.75.26-.9,1.15-.57,1.06-1.56,1.06-2.61-.01-8.73,0-17.47.01-26.2,0-.34,0-.68-.01-1.02-.04-1.13-.04-1.17-1.24-1.22-1.47-.06-2.95-.08-4.42-.08-1.99,0-3.97.04-5.96.06-.76,0-1.49-.01-1.66,1.01-.06.36-.46.51-.82.42-.31-.08-.38-.4-.37-.69.02-2.1-.17-4.2.03-6.29.03-.33-.04-.75.37-.85.35-.09.72.08.83.44.31,1.02,1.11.97,1.91.97,9.76,0,19.51.02,29.27.03.91,0,1.85.06,2.23-1.09.09-.28.4-.42.7-.34.34.1.33.42.34.69.08,2.37.1,4.74-.1,7.12Z"/>
  </g>
  <g>
    <path class="cls-20" d="M626.46,70.04c-.52-.56-.09-1,.19-1.45,1.75-2.82,3.5-5.64,5.26-8.45,3.87-6.19,7.75-12.37,11.62-18.55.1-.16.15-.35.27-.62-2.59-.53-5.09-1.08-7.61-1.54-8-1.48-16.01-2.92-24.02-4.38-7.81-1.42-15.63-2.81-23.44-4.29-3.07-.58-6.15-1.14-9.25-1.55-.54-.07-1.07-.12-1.63-.05-3.69.49-7.34,1.18-11,1.88-5.95,1.13-11.91,2.18-17.87,3.28-7.71,1.42-15.41,2.92-23.14,4.27-4.15.72-8.27,1.61-12.56,2.37.68,1.12,1.29,2.17,1.93,3.2,4.95,7.96,9.87,15.95,14.9,23.87,1.6,2.52,1.11,2.25,3.22.43,9.25-7.98,18.45-16.01,27.68-24.01,4.88-4.23,9.78-8.43,14.67-12.64.7-.6,1.25-1.36,2.18-1.73-1.34,2.05-2.65,4.12-4.01,6.16-8.41,12.65-16.82,25.3-25.24,37.94-.41.62-.78,1.28-1.28,1.83-.76.84-.76,1.71-.5,2.75,2.9,11.39,5.78,22.8,8.65,34.2,2.77,11.02,5.52,22.04,8.3,33.06,1.6,6.35,3.27,12.68,4.83,19.04.68,2.79,1.36,5.58,2.02,8.38.34,1.44.65,2.92.96,3.89-.52-1.19-1.22-2.83-1.85-4.5-1.8-4.78-3.68-9.53-5.53-14.29-1.65-4.25-3.3-8.51-4.96-12.76-2.74-7.03-5.48-14.05-8.22-21.07-2.16-5.55-4.3-11.1-6.46-16.65-2.25-5.78-4.52-11.55-6.76-17.33-2.17-5.6-4.29-11.21-6.45-16.81-.34-.87-.42-2.08-1.18-2.49-.75-.4-1.79.21-2.71.39-4.68.9-9.36,1.77-14.04,2.65-5.56,1.05-11.11,2.14-16.68,3.16-3.47.63-6.94,1.23-10.37,2.04-.38.09-.75.21-1.35.38,9.67,14.61,19.26,29.11,28.86,43.62-1.11-.52-64.19-54.69-67.23-57.76.87.1,1.19-.45,1.67-.89.98-.9,2.12-1.64,3.19-2.43,9.42-6.97,18.83-13.95,28.25-20.91,5.39-3.98,10.82-7.91,16.21-11.89.77-.57,1.55-.78,2.48-.78,12.62,0,25.23,0,37.85-.02,12.71-.02,25.43-.08,38.14-.08,27.41.02,54.82.09,82.23.05,2.32,0,4.12.57,5.96,1.96,7.02,5.28,14.16,10.41,21.24,15.62,8.11,5.97,16.21,11.98,24.31,17.97.23.17.53.3.64.69-.61.07-1.14-.17-1.66-.35-5.96-2.06-11.91-4.13-17.87-6.19-6.42-2.22-12.85-4.44-19.28-6.66-3.94-1.36-7.9-2.67-11.82-4.06-.76-.27-1.26-.16-1.89.29-7.93,5.72-15.88,11.41-23.83,17.11-1.61,1.16-3.24,2.29-4.84,3.48-.45.34-1.07.55-1.21,1.21v.03ZM528.27,70.95v-.13c.7,0,1.39.07,2.08-.02.67-.08.79-.53.32-1.03-.24-.25-.52-.47-.8-.67-1.04-.76-2.09-1.51-3.14-2.26-5.84-4.2-11.68-8.39-17.53-12.59-2.82-2.03-5.64-4.05-8.46-6.08-.53-.38-1-.63-1.74-.36-5.04,1.8-10.11,3.53-15.17,5.27-6.23,2.15-12.47,4.28-18.71,6.44-4.87,1.69-9.73,3.4-14.6,5.11-.44.16-1.11.22-1.02.84.1.64.78.45,1.23.5,3.21.31,6.44.41,9.66.6,11,.65,21.98,1.48,32.98,2.11,10.01.57,20,1.31,30,1.97,1.63.11,3.27.2,4.9.29Z"/>
    <path class="cls-18" d="M626.46,70.01c-.39.14-.45.38-.12.61.29.21.66.18,1.01.2,2.24.13,4.46-.08,6.69-.22,4.06-.26,8.12-.54,12.18-.8,5.5-.36,11-.72,16.5-1.06,4.21-.26,8.43-.47,12.64-.76,9.91-.67,19.82-1.29,29.73-1.83,1.53-.08,3.06-.28,4.59-.42.2-.02.39-.03.6.33-22.25,19.37-44.65,38.61-67.21,57.73,9.66-14.56,19.31-29.12,29.08-43.83-2.07-.45-3.99-.91-5.92-1.28-8.34-1.58-16.68-3.14-25.02-4.7-4.53-.85-9.07-1.69-13.6-2.58-.61-.12-.91-.04-1.13.55-.82,2.23-1.85,4.37-2.6,6.63-.9,2.73-2,5.39-3.04,8.08-2.85,7.35-5.72,14.7-8.58,22.04-3.53,9.06-7.07,18.11-10.6,27.16-2.84,7.3-5.66,14.61-8.49,21.91-2.03,5.22-4.06,10.45-6.09,15.66-.17.44-.26.94-.8,1.23-.26-.35-.3-.68-.19-.99,1.69-4.52,2.47-9.28,3.69-13.92,1.22-4.65,2.36-9.33,3.54-13.99,1.87-7.4,3.75-14.81,5.63-22.21,1.89-7.45,3.78-14.9,5.66-22.36,1.9-7.55,3.78-15.11,5.69-22.66.21-.84.12-1.49-.38-2.22-3.56-5.26-7.08-10.55-10.61-15.83-4.79-7.19-9.58-14.37-14.36-21.57-1.96-2.96-3.88-5.94-5.7-9.03.81.7,1.64,1.38,2.44,2.1,3.72,3.35,7.49,6.65,11.3,9.89,6.05,5.14,12,10.39,18.03,15.55,3.81,3.26,7.57,6.58,11.35,9.87.37.33.74.66,1.12.98.89.74,1.73,1.57,2.95,1.76,0,0,0-.02,0-.02Z"/>
    <path class="cls-2" d="M551.96,87.63c.46-1.29,1.08-2.12,1.6-3.02,1.29-2.24,2.63-4.44,3.9-6.69.39-.7.86-.95,1.66-.94,4.02.04,8.05.03,12.07.03,8.74,0,17.48.02,26.22-.03,1.14,0,1.79.31,2.35,1.32,1.43,2.56,2.98,5.04,4.47,7.56.24.41.59.8.56,1.34-.37.3-.78.16-1.15.16-4.27.01-8.54.02-12.81,0-1.26,0-1.14.17-1.28,1.12-.66,4.47-1.24,8.94-1.72,13.44-.45,4.24-1.1,8.46-1.58,12.7-.65,5.72-1.51,11.41-2.14,17.13-.77,7.01-1.72,13.99-2.54,20.99-.84,7.14-1.86,14.27-2.79,21.4-.11.87-.18,1.76-.28,2.66-.41-.23-.37-.61-.41-.94-.73-6.01-1.43-12.02-2.17-18.03-.83-6.8-1.71-13.59-2.53-20.39-.48-3.94-.8-7.9-1.35-11.83-.99-7.08-1.6-14.2-2.54-21.29-.67-5.01-1.11-10.06-1.88-15.07-.2-1.27-.18-1.28-1.44-1.34-3.97-.2-7.94-.26-11.91-.29-.68,0-1.37,0-2.3,0Z"/>
  </g>
</svg>